<svg width="58" height="40" viewBox="0 0 58 40" fill="none" xmlns="http://www.w3.org/2000/svg">
<path d="M3.38477 38.1709C2.40495 38.1709 1.63021 37.8405 1.06055 37.1797C0.490885 36.5189 0.206055 35.6188 0.206055 34.4795C0.206055 33.3369 0.489258 32.4352 1.05566 31.7744C1.62533 31.1136 2.40007 30.7832 3.37988 30.7832C4.15462 30.7832 4.8138 31.0111 5.35742 31.4668C5.9043 31.9193 6.22168 32.5052 6.30957 33.2246H5.2207C5.11654 32.7917 4.89844 32.4466 4.56641 32.1895C4.23763 31.9323 3.84212 31.8037 3.37988 31.8037C2.74837 31.8037 2.24707 32.0446 1.87598 32.5264C1.50814 33.0049 1.32422 33.6559 1.32422 34.4795C1.32422 35.2998 1.50814 35.9508 1.87598 36.4326C2.24707 36.9111 2.75 37.1504 3.38477 37.1504C3.85026 37.1504 4.2474 37.0332 4.57617 36.7988C4.9082 36.5645 5.12305 36.2487 5.2207 35.8516H6.30957C6.21191 36.5482 5.89616 37.1097 5.3623 37.5361C4.82845 37.9593 4.16927 38.1709 3.38477 38.1709ZM9.87402 38.1025C9.09277 38.1025 8.47917 37.8568 8.0332 37.3652C7.58724 36.8737 7.36426 36.1982 7.36426 35.3389C7.36426 34.4827 7.58724 33.8089 8.0332 33.3174C8.48242 32.8258 9.09603 32.5801 9.87402 32.5801C10.6488 32.5801 11.2591 32.8258 11.7051 33.3174C12.1543 33.8089 12.3789 34.4827 12.3789 35.3389C12.3789 36.1982 12.1559 36.8737 11.71 37.3652C11.264 37.8568 10.652 38.1025 9.87402 38.1025ZM9.87402 37.1699C10.3265 37.1699 10.6764 37.0104 10.9238 36.6914C11.1745 36.3691 11.2998 35.9183 11.2998 35.3389C11.2998 34.7627 11.1745 34.3151 10.9238 33.9961C10.6764 33.6738 10.3265 33.5127 9.87402 33.5127C9.41829 33.5127 9.06673 33.6722 8.81934 33.9912C8.57194 34.3102 8.44824 34.7594 8.44824 35.3389C8.44824 35.9215 8.57194 36.3724 8.81934 36.6914C9.06673 37.0104 9.41829 37.1699 9.87402 37.1699ZM14.0195 38V33.5908H13.1455V32.707H14.0195V32.1357C14.0195 31.0843 14.5664 30.5586 15.6602 30.5586C15.888 30.5586 16.0964 30.5765 16.2852 30.6123V31.4375C16.1875 31.418 16.0524 31.4082 15.8799 31.4082C15.5902 31.4082 15.3802 31.4733 15.25 31.6035C15.1198 31.7337 15.0547 31.9323 15.0547 32.1992V32.707H16.2412V33.5908H15.0693V38H14.0195ZM17.8281 38V33.5908H16.9541V32.707H17.8281V32.1357C17.8281 31.0843 18.375 30.5586 19.4688 30.5586C19.6966 30.5586 19.9049 30.5765 20.0938 30.6123V31.4375C19.9961 31.418 19.861 31.4082 19.6885 31.4082C19.3988 31.4082 19.1888 31.4733 19.0586 31.6035C18.9284 31.7337 18.8633 31.9323 18.8633 32.1992V32.707H20.0498V33.5908H18.8779V38H17.8281ZM24.1514 33.8496C23.917 33.599 23.6061 33.4736 23.2188 33.4736C22.8314 33.4736 22.5124 33.599 22.2617 33.8496C22.0111 34.1003 21.8711 34.4339 21.8418 34.8506H24.5273C24.5143 34.4307 24.389 34.097 24.1514 33.8496ZM24.5225 36.5645H25.5332C25.4128 37.043 25.1491 37.4189 24.7422 37.6924C24.3385 37.9658 23.834 38.1025 23.2285 38.1025C22.4668 38.1025 21.8662 37.8584 21.4268 37.3701C20.9906 36.8786 20.7725 36.208 20.7725 35.3584C20.7725 34.5088 20.9938 33.8333 21.4365 33.332C21.8792 32.8307 22.4749 32.5801 23.2236 32.5801C23.9626 32.5801 24.542 32.8177 24.9619 33.293C25.3851 33.7682 25.5967 34.4242 25.5967 35.2607V35.627H21.8418V35.6855C21.8581 36.1543 21.9932 36.5254 22.2471 36.7988C22.501 37.0723 22.8379 37.209 23.2578 37.209C23.8991 37.209 24.3206 36.9941 24.5225 36.5645ZM29.9717 33.8496C29.7373 33.599 29.4264 33.4736 29.0391 33.4736C28.6517 33.4736 28.3327 33.599 28.082 33.8496C27.8314 34.1003 27.6914 34.4339 27.6621 34.8506H30.3477C30.3346 34.4307 30.2093 34.097 29.9717 33.8496ZM30.3428 36.5645H31.3535C31.2331 37.043 30.9694 37.4189 30.5625 37.6924C30.1589 37.9658 29.6543 38.1025 29.0488 38.1025C28.2871 38.1025 27.6865 37.8584 27.2471 37.3701C26.8109 36.8786 26.5928 36.208 26.5928 35.3584C26.5928 34.5088 26.8141 33.8333 27.2568 33.332C27.6995 32.8307 28.2952 32.5801 29.0439 32.5801C29.7829 32.5801 30.3623 32.8177 30.7822 33.293C31.2054 33.7682 31.417 34.4242 31.417 35.2607V35.627H27.6621V35.6855C27.6784 36.1543 27.8135 36.5254 28.0674 36.7988C28.3213 37.0723 28.6582 37.209 29.0781 37.209C29.7194 37.209 30.141 36.9941 30.3428 36.5645ZM35.2891 34.1865C35.2891 33.7178 35.4827 33.3337 35.8701 33.0342C36.2575 32.7314 36.7523 32.5801 37.3545 32.5801C37.9535 32.5801 38.4368 32.7119 38.8047 32.9756C39.1725 33.2393 39.3825 33.6055 39.4346 34.0742H38.4287C38.3799 33.8757 38.2611 33.7194 38.0723 33.6055C37.8867 33.4915 37.6475 33.4346 37.3545 33.4346C37.0583 33.4346 36.8125 33.4997 36.6172 33.6299C36.4219 33.7568 36.3242 33.9229 36.3242 34.1279C36.3242 34.2874 36.3926 34.4193 36.5293 34.5234C36.666 34.6276 36.8792 34.7122 37.1689 34.7773L38.0527 34.9824C38.5638 35.0996 38.9382 35.2738 39.1758 35.5049C39.4167 35.736 39.5371 36.0452 39.5371 36.4326C39.5371 36.9274 39.3304 37.3294 38.917 37.6387C38.5036 37.9479 37.9762 38.1025 37.335 38.1025C36.7035 38.1025 36.1924 37.9691 35.8018 37.7021C35.4144 37.432 35.1979 37.0609 35.1523 36.5889H36.2021C36.2705 36.7972 36.4023 36.96 36.5977 37.0771C36.793 37.1943 37.0469 37.2529 37.3594 37.2529C37.6882 37.2529 37.9567 37.1862 38.165 37.0527C38.3734 36.9193 38.4775 36.7467 38.4775 36.5352C38.4775 36.2259 38.2171 36.0094 37.6963 35.8857L36.7686 35.6709C36.2607 35.5505 35.8864 35.3714 35.6455 35.1338C35.4079 34.8962 35.2891 34.5804 35.2891 34.1865ZM40.8506 38V30.6074H41.8906V33.5371H41.9736C42.1038 33.2344 42.3073 33 42.584 32.834C42.8639 32.668 43.2008 32.585 43.5947 32.585C44.1644 32.585 44.612 32.7591 44.9375 33.1074C45.263 33.4525 45.4258 33.9391 45.4258 34.5674V38H44.376V34.8262C44.376 34.403 44.2799 34.084 44.0879 33.8691C43.8958 33.6543 43.6126 33.5469 43.2383 33.5469C42.8151 33.5469 42.4863 33.6689 42.252 33.9131C42.0176 34.1572 41.9004 34.4844 41.9004 34.8945V38H40.8506ZM49.1514 38.1025C48.3701 38.1025 47.7565 37.8568 47.3105 37.3652C46.8646 36.8737 46.6416 36.1982 46.6416 35.3389C46.6416 34.4827 46.8646 33.8089 47.3105 33.3174C47.7598 32.8258 48.3734 32.5801 49.1514 32.5801C49.9261 32.5801 50.5365 32.8258 50.9824 33.3174C51.4316 33.8089 51.6562 34.4827 51.6562 35.3389C51.6562 36.1982 51.4333 36.8737 50.9873 37.3652C50.5413 37.8568 49.9294 38.1025 49.1514 38.1025ZM49.1514 37.1699C49.6038 37.1699 49.9538 37.0104 50.2012 36.6914C50.4518 36.3691 50.5771 35.9183 50.5771 35.3389C50.5771 34.7627 50.4518 34.3151 50.2012 33.9961C49.9538 33.6738 49.6038 33.5127 49.1514 33.5127C48.6956 33.5127 48.3441 33.6722 48.0967 33.9912C47.8493 34.3102 47.7256 34.7594 47.7256 35.3389C47.7256 35.9215 47.8493 36.3724 48.0967 36.6914C48.3441 37.0104 48.6956 37.1699 49.1514 37.1699ZM55.6797 32.5947C56.3568 32.5947 56.8939 32.8421 57.291 33.3369C57.6882 33.8285 57.8867 34.4958 57.8867 35.3389C57.8867 36.182 57.6882 36.8509 57.291 37.3457C56.8971 37.8405 56.3633 38.0879 55.6895 38.0879C55.3118 38.0879 54.9798 38.0098 54.6934 37.8535C54.4069 37.694 54.1937 37.4743 54.0537 37.1943H53.9707V39.7676H52.9209V32.6826H53.9316V33.5615H54.0098C54.1693 33.2588 54.3971 33.0228 54.6934 32.8535C54.9896 32.681 55.3184 32.5947 55.6797 32.5947ZM55.3818 37.1455C55.8278 37.1455 56.1761 36.986 56.4268 36.667C56.6807 36.3447 56.8076 35.902 56.8076 35.3389C56.8076 34.7757 56.6807 34.3346 56.4268 34.0156C56.1761 33.6966 55.8294 33.5371 55.3867 33.5371C54.944 33.5371 54.5941 33.6999 54.3369 34.0254C54.0798 34.3477 53.9512 34.7871 53.9512 35.3438C53.9512 35.8971 54.0798 36.3366 54.3369 36.6621C54.5941 36.9844 54.9424 37.1455 55.3818 37.1455Z" fill="#3F4145" fill-opacity="0.4"/>
<path d="M29 18H23V14H29M38 14V12L37 7H21L20 12V14H21V20H31V14H35V20H37V14M37 4H21V6H37V4Z" fill="#3F4145" fill-opacity="0.4"/>
</svg>
