<svg width="49" height="40" viewBox="0 0 49 40" fill="none" xmlns="http://www.w3.org/2000/svg">
<path d="M1.75806 36.1055H2.84204C2.88761 36.4408 3.06177 36.7077 3.3645 36.9062C3.67049 37.1016 4.05949 37.1992 4.53149 37.1992C4.97095 37.1992 5.3339 37.0983 5.62036 36.8965C5.91007 36.6914 6.05493 36.4326 6.05493 36.1201C6.05493 35.8532 5.94751 35.6351 5.73267 35.4658C5.52108 35.2933 5.18091 35.1517 4.71216 35.041L3.80396 34.8213C3.16593 34.6715 2.69718 34.4388 2.39771 34.123C2.09823 33.8073 1.94849 33.3906 1.94849 32.873C1.94849 32.2448 2.18286 31.7402 2.65161 31.3594C3.12362 30.9753 3.74373 30.7832 4.51196 30.7832C5.22811 30.7832 5.82218 30.972 6.29419 31.3496C6.76619 31.7272 7.01847 32.2122 7.05103 32.8047H5.98657C5.93449 32.4792 5.77498 32.222 5.50806 32.0332C5.24438 31.8444 4.90747 31.75 4.49731 31.75C4.06437 31.75 3.71606 31.846 3.45239 32.0381C3.18872 32.2301 3.05688 32.484 3.05688 32.7998C3.05688 33.0505 3.15617 33.2539 3.35474 33.4102C3.55656 33.5664 3.88696 33.6982 4.34595 33.8057L5.12231 33.9961C5.84497 34.1654 6.3658 34.4062 6.68481 34.7188C7.00382 35.028 7.16333 35.4479 7.16333 35.9785C7.16333 36.6523 6.91919 37.1862 6.43091 37.5801C5.94263 37.974 5.28182 38.1709 4.44849 38.1709C3.66724 38.1709 3.03247 37.9837 2.54419 37.6094C2.05916 37.235 1.79712 36.7337 1.75806 36.1055ZM8.85278 31.3594H9.90259V32.707H11.0549V33.5908H9.90259V36.3252C9.90259 36.6019 9.96281 36.8053 10.0833 36.9355C10.2037 37.0625 10.3941 37.126 10.6545 37.126C10.7587 37.126 10.8922 37.1178 11.0549 37.1016V37.9756C10.8466 38.0114 10.6562 38.0293 10.4836 38.0293C9.90096 38.0293 9.48267 37.9186 9.22876 37.6973C8.97811 37.4759 8.85278 37.1081 8.85278 36.5938V33.5908H8.00806V32.707H8.85278V31.3594ZM14.0286 37.2041C14.4224 37.2041 14.7496 37.0934 15.01 36.8721C15.2737 36.6507 15.4055 36.374 15.4055 36.042V35.5977L14.1067 35.6807C13.7421 35.7035 13.4736 35.7783 13.301 35.9053C13.1285 36.0322 13.0422 36.2129 13.0422 36.4473C13.0422 36.6816 13.1334 36.8672 13.3157 37.0039C13.498 37.1374 13.7356 37.2041 14.0286 37.2041ZM13.76 38.0879C13.2392 38.0879 12.8127 37.943 12.4807 37.6533C12.1519 37.3604 11.9875 36.9746 11.9875 36.4961C11.9875 36.0208 12.1584 35.6481 12.5002 35.3779C12.842 35.1045 13.3303 34.9482 13.9651 34.9092L15.4055 34.8262V34.3672C15.4055 34.084 15.3127 33.8675 15.1272 33.7178C14.9417 33.5648 14.6715 33.4883 14.3167 33.4883C14.0237 33.4883 13.7795 33.5404 13.5842 33.6445C13.3922 33.7454 13.2668 33.8903 13.2083 34.0791H12.1926C12.2447 33.6234 12.4677 33.2604 12.8616 32.9902C13.2587 32.7168 13.76 32.5801 14.3655 32.5801C15.0295 32.5801 15.5422 32.738 15.9036 33.0537C16.2681 33.3662 16.4504 33.804 16.4504 34.3672V38H15.4397V37.2529H15.3567C15.1972 37.5199 14.9775 37.7266 14.6975 37.873C14.4208 38.0163 14.1083 38.0879 13.76 38.0879ZM18.3157 31.3594H19.3655V32.707H20.5178V33.5908H19.3655V36.3252C19.3655 36.6019 19.4257 36.8053 19.5461 36.9355C19.6666 37.0625 19.857 37.126 20.1174 37.126C20.2216 37.126 20.3551 37.1178 20.5178 37.1016V37.9756C20.3095 38.0114 20.1191 38.0293 19.9465 38.0293C19.3639 38.0293 18.9456 37.9186 18.6917 37.6973C18.441 37.4759 18.3157 37.1081 18.3157 36.5938V33.5908H17.4709V32.707H18.3157V31.3594ZM21.7727 38V32.6826H22.8176V38H21.7727ZM22.7786 31.5693C22.6516 31.6898 22.4905 31.75 22.2952 31.75C22.0999 31.75 21.9371 31.6898 21.8069 31.5693C21.6799 31.4456 21.6165 31.2926 21.6165 31.1104C21.6165 30.9281 21.6799 30.7751 21.8069 30.6514C21.9371 30.5277 22.0999 30.4658 22.2952 30.4658C22.4905 30.4658 22.6516 30.5277 22.7786 30.6514C22.9088 30.7751 22.9739 30.9281 22.9739 31.1104C22.9739 31.2926 22.9088 31.4456 22.7786 31.5693ZM24.2385 34.1865C24.2385 33.7178 24.4322 33.3337 24.8196 33.0342C25.2069 32.7314 25.7017 32.5801 26.304 32.5801C26.9029 32.5801 27.3863 32.7119 27.7542 32.9756C28.122 33.2393 28.3319 33.6055 28.384 34.0742H27.3782C27.3293 33.8757 27.2105 33.7194 27.0217 33.6055C26.8362 33.4915 26.5969 33.4346 26.304 33.4346C26.0077 33.4346 25.762 33.4997 25.5667 33.6299C25.3713 33.7568 25.2737 33.9229 25.2737 34.1279C25.2737 34.2874 25.342 34.4193 25.4788 34.5234C25.6155 34.6276 25.8287 34.7122 26.1184 34.7773L27.0022 34.9824C27.5133 35.0996 27.8876 35.2738 28.1252 35.5049C28.3661 35.736 28.4866 36.0452 28.4866 36.4326C28.4866 36.9274 28.2799 37.3294 27.8665 37.6387C27.453 37.9479 26.9257 38.1025 26.2844 38.1025C25.6529 38.1025 25.1418 37.9691 24.7512 37.7021C24.3639 37.432 24.1474 37.0609 24.1018 36.5889H25.1516C25.22 36.7972 25.3518 36.96 25.5471 37.0771C25.7424 37.1943 25.9963 37.2529 26.3088 37.2529C26.6376 37.2529 26.9062 37.1862 27.1145 37.0527C27.3228 36.9193 27.427 36.7467 27.427 36.5352C27.427 36.2259 27.1666 36.0094 26.6458 35.8857L25.718 35.6709C25.2102 35.5505 24.8359 35.3714 24.595 35.1338C24.3573 34.8962 24.2385 34.5804 24.2385 34.1865ZM30.0833 31.3594H31.1331V32.707H32.2854V33.5908H31.1331V36.3252C31.1331 36.6019 31.1933 36.8053 31.3137 36.9355C31.4342 37.0625 31.6246 37.126 31.885 37.126C31.9892 37.126 32.1226 37.1178 32.2854 37.1016V37.9756C32.0771 38.0114 31.8866 38.0293 31.7141 38.0293C31.1314 38.0293 30.7131 37.9186 30.4592 37.6973C30.2086 37.4759 30.0833 37.1081 30.0833 36.5938V33.5908H29.2385V32.707H30.0833V31.3594ZM33.5403 38V32.6826H34.5852V38H33.5403ZM34.5461 31.5693C34.4192 31.6898 34.2581 31.75 34.0627 31.75C33.8674 31.75 33.7047 31.6898 33.5745 31.5693C33.4475 31.4456 33.384 31.2926 33.384 31.1104C33.384 30.9281 33.4475 30.7751 33.5745 30.6514C33.7047 30.5277 33.8674 30.4658 34.0627 30.4658C34.2581 30.4658 34.4192 30.5277 34.5461 30.6514C34.6764 30.7751 34.7415 30.9281 34.7415 31.1104C34.7415 31.2926 34.6764 31.4456 34.5461 31.5693ZM40.6301 34.4209H39.6096C39.5445 34.1507 39.4029 33.9326 39.1848 33.7666C38.97 33.6006 38.6933 33.5176 38.3547 33.5176C37.9153 33.5176 37.5686 33.6771 37.3147 33.9961C37.064 34.3151 36.9387 34.7578 36.9387 35.3242C36.9387 35.8971 37.064 36.348 37.3147 36.6768C37.5686 37.0023 37.9153 37.165 38.3547 37.165C38.69 37.165 38.9651 37.0902 39.1799 36.9404C39.398 36.7907 39.5413 36.5742 39.6096 36.291H40.6301C40.5618 36.8379 40.3274 37.2773 39.927 37.6094C39.5266 37.9382 39.0042 38.1025 38.3596 38.1025C37.5849 38.1025 36.9745 37.8568 36.5286 37.3652C36.0859 36.8704 35.8645 36.1901 35.8645 35.3242C35.8645 34.4714 36.0859 33.8008 36.5286 33.3125C36.9713 32.8242 37.58 32.5801 38.3547 32.5801C39.0025 32.5801 39.525 32.7493 39.9221 33.0879C40.3225 33.4264 40.5585 33.8708 40.6301 34.4209ZM41.7092 34.1865C41.7092 33.7178 41.9029 33.3337 42.2903 33.0342C42.6777 32.7314 43.1724 32.5801 43.7747 32.5801C44.3736 32.5801 44.857 32.7119 45.2249 32.9756C45.5927 33.2393 45.8027 33.6055 45.8547 34.0742H44.8489C44.8 33.8757 44.6812 33.7194 44.4924 33.6055C44.3069 33.4915 44.0676 33.4346 43.7747 33.4346C43.4784 33.4346 43.2327 33.4997 43.0374 33.6299C42.842 33.7568 42.7444 33.9229 42.7444 34.1279C42.7444 34.2874 42.8127 34.4193 42.9495 34.5234C43.0862 34.6276 43.2994 34.7122 43.5891 34.7773L44.4729 34.9824C44.984 35.0996 45.3583 35.2738 45.5959 35.5049C45.8368 35.736 45.9573 36.0452 45.9573 36.4326C45.9573 36.9274 45.7506 37.3294 45.3372 37.6387C44.9237 37.9479 44.3964 38.1025 43.7551 38.1025C43.1236 38.1025 42.6125 37.9691 42.2219 37.7021C41.8346 37.432 41.6181 37.0609 41.5725 36.5889H42.6223C42.6907 36.7972 42.8225 36.96 43.0178 37.0771C43.2131 37.1943 43.467 37.2529 43.7795 37.2529C44.1083 37.2529 44.3769 37.1862 44.5852 37.0527C44.7935 36.9193 44.8977 36.7467 44.8977 36.5352C44.8977 36.2259 44.6373 36.0094 44.1165 35.8857L43.1887 35.6709C42.6809 35.5505 42.3066 35.3714 42.0657 35.1338C41.828 34.8962 41.7092 34.5804 41.7092 34.1865Z" fill="#3F4145" fill-opacity="0.4"/>
<path d="M34.8333 21H14.8333V3H16.8333V19H18.8333V10H22.8333V19H24.8333V6H28.8333V19H30.8333V14H34.8333V21Z" fill="#3F4145" fill-opacity="0.4"/>
</svg>
